# xmcd CD database file
#
# Track frame offsets:
#	150
#	19970
#	42782
#	79810
#	111880
#	127282
#	147897
#	175790
#
# Disc length: 2854 seconds
#
# Revision: 0
# Processed by: cddbd v1.4PL0 Copyright (c) Steve Scherf et al.
# Submitted via: CDex 1.50beta9
#
DISCID=6b0b2408
DTITLE=Jazz Passengers - Plain Old Joe
DYEAR=1993
DGENRE=Jazz
TTITLE0=August 87th, 1998
TTITLE1=Plain Old Joe
TTITLE2=20792 Peace Talk and Reception
TTITLE3=Honer B. Halfsteppin'
TTITLE4=Inzane
TTITLE5=If I Were A Bell
TTITLE6=Robbie
TTITLE7=Blues For Helen
EXTD=YEAR: 1993
EXTT0=
EXTT1=
EXTT2=
EXTT3=
EXTT4=
EXTT5=
EXTT6=
EXTT7=
PLAYORDER=
